<svg id="visual" viewBox="0 0 1540 700" width="1540" height="700" xmlns="http://www.w3.org/2000/svg" xmlns:xlink="http://www.w3.org/1999/xlink" version="1.1"><rect width="1540" height="700" fill="#001829"></rect><g><g transform="translate(881 475)"><path d="M0 -88.8L62.8 -62.8L88.8 0L62.8 62.8L0 88.8L-62.8 62.8L-88.8 0L-62.8 -62.8Z" fill="#ffc107"></path></g><g transform="translate(84 314)"><path d="M0 -82L58 -58L82 0L58 58L0 82L-58 58L-82 0L-58 -58Z" fill="#ffc107"></path></g><g transform="translate(1322 68)"><path d="M0 -70L49.5 -49.5L70 0L49.5 49.5L0 70L-49.5 49.5L-70 0L-49.5 -49.5Z" fill="#ffc107"></path></g><g transform="translate(216 557)"><path d="M0 -68L48.1 -48.1L68 0L48.1 48.1L0 68L-48.1 48.1L-68 0L-48.1 -48.1Z" fill="#ffc107"></path></g><g transform="translate(52 677)"><path d="M0 -82L58 -58L82 0L58 58L0 82L-58 58L-82 0L-58 -58Z" fill="#ffc107"></path></g><g transform="translate(526 559)"><path d="M0 -59L41.7 -41.7L59 0L41.7 41.7L0 59L-41.7 41.7L-59 0L-41.7 -41.7Z" fill="#ffc107"></path></g><g transform="translate(395 154)"><path d="M0 -87L61.5 -61.5L87 0L61.5 61.5L0 87L-61.5 61.5L-87 0L-61.5 -61.5Z" fill="#ffc107"></path></g><g transform="translate(1464 481)"><path d="M0 -71L50.2 -50.2L71 0L50.2 50.2L0 71L-50.2 50.2L-71 0L-50.2 -50.2Z" fill="#ffc107"></path></g><g transform="translate(611 23)"><path d="M0 -84L59.4 -59.4L84 0L59.4 59.4L0 84L-59.4 59.4L-84 0L-59.4 -59.4Z" fill="#ffc107"></path></g><g transform="translate(1318 585)"><path d="M0 -58L41 -41L58 0L41 41L0 58L-41 41L-58 0L-41 -41Z" fill="#ffc107"></path></g><g transform="translate(404 405)"><path d="M0 -83L58.7 -58.7L83 0L58.7 58.7L0 83L-58.7 58.7L-83 0L-58.7 -58.7Z" fill="#ffc107"></path></g></g></svg>