<?xml version="1.0" encoding="UTF-8"?>
<svg version="1.1" xmlns="http://www.w3.org/2000/svg" width="256" height="256">
<path d="M0 0 C1.10794922 -0.03867187 1.10794922 -0.03867187 2.23828125 -0.078125 C13.77076188 1.46689633 21.07121877 14.89261055 27.703125 23.4375 C31.51028651 28.32875204 35.43648711 33.12266695 39.36035156 37.92041016 C41.8651496 40.98743066 44.34982609 44.05193222 46.6875 47.25 C53.97664536 46.51767932 60.84702696 44.79574452 67.91015625 42.890625 C74.87092025 41.12763674 80.33687329 40.51025151 86.9375 43.9375 C90.88217381 47.25461207 93.19117816 50.26057398 94.44873047 55.30126953 C94.76146516 60.47322335 93.59966442 64.6681431 92.1953125 69.6171875 C91.78588913 71.11800369 91.78588913 71.11800369 91.36819458 72.6491394 C90.4890474 75.8536183 89.58959861 79.05191377 88.6875 82.25 C88.104821 84.34659016 87.52246195 86.44326927 86.94042969 88.54003906 C85.47914338 93.77428954 83.98447677 98.99825866 82.47314453 104.21826172 C81.85718882 106.35346477 81.24665788 108.49023901 80.64111328 110.62841797 C79.74870774 113.77911718 78.84105037 116.9250519 77.9296875 120.0703125 C77.66292206 121.02229523 77.39615662 121.97427795 77.12130737 122.95510864 C75.68830749 127.8287701 74.36736098 131.56266152 70.6875 135.25 C68.07948931 136.55400535 66.16337751 136.38480027 63.24162292 136.39717102 C61.50660774 136.40790398 61.50660774 136.40790398 59.73654175 136.41885376 C58.46118561 136.42154266 57.18582947 136.42423157 55.87182617 136.42700195 C54.52005335 136.43326592 53.16828226 136.43991267 51.81651306 136.44691467 C48.13873311 136.46433032 44.46096617 136.47487794 40.7831552 136.4831202 C38.4858749 136.48826913 36.18859863 136.49434491 33.89132118 136.50063133 C26.70507679 136.51968493 19.51884269 136.53391575 12.33257788 136.5422433 C4.03460327 136.55201761 -4.26310473 136.57834125 -12.56098539 136.61874419 C-18.9729427 136.6488941 -25.38482355 136.66371109 -31.79685038 136.66702431 C-35.6273348 136.66937609 -39.45753444 136.67835258 -43.28794289 136.70348549 C-46.89215063 136.72675192 -50.49588581 136.73100558 -54.10014915 136.72072411 C-56.05179256 136.71999203 -58.00341189 136.73909339 -59.95495605 136.75878906 C-61.70266045 136.74837334 -61.70266045 136.74837334 -63.485672 136.73774719 C-65.00135128 136.74132972 -65.00135128 136.74132972 -66.54765034 136.74498463 C-70.0838166 136.11191298 -71.75146059 134.72192053 -74.3125 132.25 C-75.61987305 129.51635742 -75.61987305 129.51635742 -76.63671875 126.16796875 C-76.83408127 125.53118698 -77.03144379 124.89440521 -77.23478699 124.23832703 C-77.94687317 121.9143648 -78.62934873 119.58262878 -79.3125 117.25 C-79.91184242 115.25068494 -80.51164522 113.25150784 -81.11181641 111.25244141 C-82.81042163 105.55639681 -84.46282474 99.84798092 -86.09838867 94.13354492 C-86.78490862 91.74550039 -87.47831565 89.35942542 -88.1784668 86.9753418 C-89.20352069 83.48393887 -90.20742726 79.98704414 -91.20703125 76.48828125 C-91.51945267 75.43796219 -91.83187408 74.38764313 -92.15376282 73.30549622 C-94.41026562 65.27137061 -96.42804642 56.40814296 -92.5 48.6875 C-91.778125 47.883125 -91.05625 47.07875 -90.3125 46.25 C-89.631875 45.38375 -89.631875 45.38375 -88.9375 44.5 C-84.25035993 40.89450764 -79.46519431 41.00940905 -73.859375 41.62109375 C-68.26125972 42.61371111 -62.78050084 44.08129156 -57.30615234 45.60961914 C-51.25442714 47.46273242 -51.25442714 47.46273242 -45.3125 46.25 C-43.02139605 44.04024169 -41.11805779 41.58785788 -39.1875 39.0625 C-38.6212793 38.34360596 -38.05505859 37.62471191 -37.47167969 36.8840332 C-35.74028924 34.68152434 -34.02598431 32.46645233 -32.3125 30.25 C-31.32179186 28.98581843 -30.32968947 27.72272777 -29.3359375 26.4609375 C-27.5157717 24.14904866 -25.69803221 21.83530548 -23.8828125 19.51953125 C-21.41448901 16.37692949 -18.93888537 13.24141247 -16.4375 10.125 C-15.75945312 9.27679688 -15.08140625 8.42859375 -14.3828125 7.5546875 C-10.1137193 2.80230073 -6.4643347 0.13397585 0 0 Z " fill="#FFF000" transform="translate(128.3125,59.75)"/>
<path d="M0 0 C1.70760498 -0.0129007 1.70760498 -0.0129007 3.44970703 -0.02606201 C4.70479065 -0.03032196 5.95987427 -0.03458191 7.25299072 -0.03897095 C8.57013062 -0.04714844 9.88727051 -0.05532593 11.24432373 -0.06375122 C15.61991324 -0.08997847 19.99551235 -0.10528068 24.37115479 -0.11953735 C25.87732194 -0.12489696 27.38348904 -0.13027447 28.88965607 -0.13566971 C35.1553502 -0.15730049 41.42104174 -0.17603678 47.68676376 -0.1872921 C56.66628611 -0.20352819 65.64537551 -0.23669489 74.62473464 -0.29369295 C80.93819235 -0.33240191 87.25153432 -0.35192596 93.56510758 -0.35721266 C97.3358966 -0.36086521 101.10622394 -0.37287492 104.87688446 -0.4053154 C108.42617774 -0.43541312 111.97473044 -0.4417025 115.52412415 -0.42993164 C117.44339941 -0.42960606 119.36262907 -0.45406132 121.28173828 -0.47930908 C130.69584316 -0.41119371 130.69584316 -0.41119371 134.3951416 2.56536865 C137.476848 6.12396884 138.03080057 8.2932973 137.99615479 13.0484314 C137.36096165 16.76983467 135.29698962 18.55702864 132.63677979 21.15390015 C130.04986571 22.44735718 128.17152834 22.2915426 125.27355957 22.30780029 C124.13515625 22.31640076 122.99675293 22.32500122 121.82385254 22.3338623 C119.94122711 22.34025223 119.94122711 22.34025223 118.02056885 22.34677124 C116.70342896 22.35494873 115.38628906 22.36312622 114.02923584 22.37155151 C109.65364633 22.39777877 105.27804722 22.41308097 100.90240479 22.42733765 C99.39623763 22.43269725 97.89007053 22.43807476 96.3839035 22.44347 C90.11820938 22.46510078 83.85251783 22.48383707 77.58679581 22.49509239 C68.60727346 22.51132849 59.62818406 22.54449519 50.64882493 22.60149324 C44.33536722 22.6402022 38.02202525 22.65972625 31.70845199 22.66501296 C27.93766297 22.6686655 24.16733563 22.68067522 20.39667511 22.71311569 C16.84738183 22.74321341 13.29882913 22.74950279 9.74943542 22.73773193 C7.83016016 22.73740635 5.9109305 22.76186161 3.99182129 22.78710938 C-5.42228359 22.71899401 -5.42228359 22.71899401 -9.12158203 19.74243164 C-12.20328843 16.18383145 -12.757241 14.01450299 -12.72259521 9.2593689 C-12.08740208 5.53796562 -10.02343005 3.75077166 -7.36322021 1.15390015 C-4.77630614 -0.13955689 -2.89796877 0.0162577 0 0 Z " fill="#FFEF00" transform="translate(65.36322021484375,212.84609985351563)"/>
<path d="M0 0 C3.27593689 2.5452745 5.32676302 4.93301158 6.15625 8.98828125 C6.29617873 13.70213031 5.8558839 17.62940702 2.90625 21.42578125 C-0.4146601 24.52026566 -2.37273805 25.91493025 -6.94921875 26.05078125 C-12.83256183 25.73542618 -15.83183236 24.29375384 -19.84375 19.98828125 C-22.28732377 16.16355708 -22.0671983 12.56923986 -21.44921875 8.20703125 C-20.21983073 3.70191903 -17.51674716 1.05714055 -13.59375 -1.44921875 C-8.91871806 -2.40547528 -4.26301752 -2.33924055 0 0 Z " fill="#FFF000" transform="translate(135.84375,20.01171875)"/>
<path d="M0 0 C3.19556529 1.26491126 4.53559295 2.48755084 6.8125 5 C8.65473845 9.65407608 8.78063124 14.07045828 8 19 C6.03202478 22.9515693 3.04226474 25.32448878 -1 27 C-5.65570345 27.72798272 -9.14371687 27.42814156 -13.375 25.3125 C-16.67492133 22.40542645 -18.64869724 20.34201838 -19.31640625 15.890625 C-19.60047173 10.42923704 -18.6530871 7.26193495 -15 3 C-10.47157922 -1.1256762 -5.83463593 -0.63288027 0 0 Z " fill="#FFF000" transform="translate(232,64)"/>
<path d="M0 0 C3.9515693 1.96797522 6.32448878 4.95773526 8 9 C8.72798272 13.65570345 8.42814156 17.14371687 6.3125 21.375 C3.40542645 24.67492133 1.34201838 26.64869724 -3.109375 27.31640625 C-8.57076296 27.60047173 -11.73806505 26.6530871 -16 23 C-19.62474996 19.0214054 -19.44414248 15.82015228 -19.28515625 10.62890625 C-18.80301145 6.1839275 -17.22992157 4.11461642 -14 1.1875 C-9.34592392 -0.65473845 -4.92954172 -0.78063124 0 0 Z " fill="#FFF000" transform="translate(35,64)"/>
</svg>
